<svg width="659" height="63" viewBox="0 0 659 63" fill="none" xmlns="http://www.w3.org/2000/svg">
<path d="M21.4607 20.1111H32.6313C35.1075 20.1111 37.116 22.3397 37.116 24.5958C37.116 27.0721 35.1075 29.0806 32.6313 29.0806H21.4607V20.1111Z" stroke="#FFA503" stroke-width="4.08774" stroke-miterlimit="10" stroke-linecap="round" stroke-linejoin="round"/>
<path d="M21.4607 29.053H34.2271C37.061 29.053 39.3446 31.0615 39.3446 33.5377C39.3446 36.014 37.061 38.0225 34.2271 38.0225H21.4607V29.053Z" stroke="#FFA503" stroke-width="4.08774" stroke-miterlimit="10" stroke-linecap="round" stroke-linejoin="round"/>
<path d="M29.2749 37.995V42.4798" stroke="#FFA503" stroke-width="4.08774" stroke-miterlimit="10" stroke-linecap="round" stroke-linejoin="round"/>
<path d="M23.6895 37.995V42.4798" stroke="#FFA503" stroke-width="4.08774" stroke-miterlimit="10" stroke-linecap="round" stroke-linejoin="round"/>
<path d="M29.2749 15.6263V20.1111" stroke="#FFA503" stroke-width="4.08774" stroke-miterlimit="10" stroke-linecap="round" stroke-linejoin="round"/>
<path d="M23.6895 15.6263V20.1111" stroke="#FFA503" stroke-width="4.08774" stroke-miterlimit="10" stroke-linecap="round" stroke-linejoin="round"/>
<path d="M25.6982 20.1111H17.8843" stroke="#FFA503" stroke-width="4.08774" stroke-miterlimit="10" stroke-linecap="round" stroke-linejoin="round"/>
<path d="M25.6982 37.995H17.8843" stroke="#FFA503" stroke-width="4.08774" stroke-miterlimit="10" stroke-linecap="round" stroke-linejoin="round"/>
<path d="M28.6145 52.5864C41.7838 52.5864 52.4596 41.9105 52.4596 28.7412C52.4596 15.5719 41.7838 4.89601 28.6145 4.89601C15.4451 4.89601 4.76929 15.5719 4.76929 28.7412C4.76929 41.9105 15.4451 52.5864 28.6145 52.5864Z" stroke="#FFA503" stroke-width="4.08774" stroke-miterlimit="10"/>
<path d="M629.59 4.89601L615.283 19.2031L620.052 23.9721L629.59 14.4341L639.128 23.9721L643.897 19.2031L629.59 4.89601Z" stroke="#FFA503" stroke-width="3.27019" stroke-miterlimit="10" stroke-linecap="round" stroke-linejoin="round"/>
<path d="M629.59 52.5865L615.283 38.2794L620.052 33.5104L629.59 43.0484L639.128 33.5104L643.897 38.2794L629.59 52.5865Z" stroke="#FFA503" stroke-width="3.27019" stroke-miterlimit="10" stroke-linecap="round" stroke-linejoin="round"/>
<path d="M648.154 23.2616L642.758 28.6571L648.154 34.0526L653.549 28.6571L648.154 23.2616Z" stroke="#FFA503" stroke-width="3.27019" stroke-miterlimit="10" stroke-linecap="round" stroke-linejoin="round"/>
<path d="M611.194 23.2611L605.798 28.6566L611.194 34.0521L616.589 28.6566L611.194 23.2611Z" stroke="#FFA503" stroke-width="3.27019" stroke-miterlimit="10" stroke-linecap="round" stroke-linejoin="round"/>
<path d="M629.421 22.8399L623.52 28.7412L629.421 34.6425L635.322 28.7412L629.421 22.8399Z" stroke="#FFA503" stroke-width="3.27019" stroke-miterlimit="10" stroke-linecap="round" stroke-linejoin="round"/>
<path d="M228.94 52.5864C242.109 52.5864 252.785 41.9105 252.785 28.7412C252.785 15.5719 242.109 4.89601 228.94 4.89601C215.77 4.89601 205.094 15.5719 205.094 28.7412C205.094 41.9105 215.77 52.5864 228.94 52.5864Z" stroke="#FFA503" stroke-width="4.08774" stroke-miterlimit="10" stroke-linecap="round" stroke-linejoin="round"/>
<path d="M238.001 19.2031H226.078C222.263 19.2031 218.925 22.5414 218.925 26.3567V28.7412V31.1257C218.925 34.9409 222.263 38.2792 226.078 38.2792H238.001" stroke="#FFA503" stroke-width="4.08774" stroke-miterlimit="10" stroke-linecap="round" stroke-linejoin="round"/>
<path d="M238.001 28.7412H218.925" stroke="#FFA503" stroke-width="4.08774" stroke-miterlimit="10" stroke-linecap="round" stroke-linejoin="round"/>
<path d="M328.148 15.3879H334.11L329.102 34.2256H339.117L337.925 40.9022H319.564L326.718 15.3879H328.148Z" stroke="#FFA503" stroke-width="4.08774" stroke-miterlimit="10" stroke-linecap="round" stroke-linejoin="round"/>
<path d="M336.256 26.3567L317.895 29.9334" stroke="#FFA503" stroke-width="4.08774" stroke-miterlimit="10" stroke-linecap="round" stroke-linejoin="round"/>
<path d="M329.102 52.5864C342.272 52.5864 352.947 41.9105 352.947 28.7412C352.947 15.5719 342.272 4.89601 329.102 4.89601C315.933 4.89601 305.257 15.5719 305.257 28.7412C305.257 41.9105 315.933 52.5864 329.102 52.5864Z" stroke="#FFA503" stroke-width="4.08774" stroke-miterlimit="10" stroke-linecap="round" stroke-linejoin="round"/>
<path d="M448.341 8.47278H413.765C413.05 8.47278 412.335 8.71124 411.858 9.42659L408.281 14.1956C407.089 15.8648 408.281 18.0109 410.188 18.0109H444.764C445.479 18.0109 446.195 17.7724 446.672 17.057L450.248 12.288C451.441 10.6189 450.248 8.47278 448.341 8.47278Z" stroke="#FFA503" stroke-width="2.45265" stroke-miterlimit="10"/>
<path d="M410.188 23.9721H444.764C445.479 23.9721 446.195 24.2106 446.672 24.926L450.248 29.695C451.441 31.3641 450.248 33.5102 448.341 33.5102H413.765C413.05 33.5102 412.335 33.2718 411.858 32.5564L408.281 27.7874C407.089 26.1182 408.281 23.9721 410.188 23.9721Z" stroke="#FFA503" stroke-width="2.45265" stroke-miterlimit="10"/>
<path d="M448.341 39.4714H413.765C413.05 39.4714 412.335 39.7098 411.858 40.4252L408.281 45.1942C407.089 46.8634 408.281 49.0095 410.188 49.0095H444.764C445.479 49.0095 446.195 48.771 446.672 48.0556L450.248 43.2866C451.441 41.6175 450.248 39.4714 448.341 39.4714Z" stroke="#FFA503" stroke-width="2.45265" stroke-miterlimit="10"/>
<path d="M507.013 13.6163L522.989 53.6762C523.943 55.8223 525.612 56.0607 527.043 54.1531L549.458 25.7774C550.173 24.8236 550.173 23.3928 549.219 22.6775L541.827 15.2855C541.589 14.8086 540.873 14.5701 540.635 14.5701L509.636 10.5165C507.49 10.0395 506.298 11.4703 507.013 13.6163Z" stroke="#FFA503" stroke-width="4.08774" stroke-miterlimit="10" stroke-linecap="round" stroke-linejoin="round"/>
<path d="M524.659 55.1071L527.043 28.8774L507.967 11.9473" stroke="#FFA503" stroke-width="4.08774" stroke-miterlimit="10" stroke-linecap="round" stroke-linejoin="round"/>
<path d="M541.351 14.5703L527.043 28.8774L548.504 24.5852" stroke="#FFA503" stroke-width="4.08774" stroke-miterlimit="10" stroke-linecap="round" stroke-linejoin="round"/>
<path d="M116.616 21.8261L128.061 16.8186C128.538 16.5801 129.015 16.5801 129.731 16.8186L141.176 21.8261C142.13 22.303 143.084 21.1107 142.369 20.1569L130.446 5.61137C129.731 4.65756 128.3 4.65756 127.585 5.61137L115.662 20.1569C114.708 21.1107 115.662 22.303 116.616 21.8261Z" stroke="#FFA503" stroke-width="3.27019" stroke-miterlimit="10" stroke-linecap="round" stroke-linejoin="round"/>
<path d="M116.616 35.6563L128.061 40.6638C128.538 40.9022 129.015 40.9022 129.731 40.6638L141.176 35.6563C142.13 35.1794 143.084 36.3716 142.369 37.3254L130.446 51.871C129.731 52.8248 128.3 52.8248 127.585 51.871L115.662 37.3254C114.708 36.3716 115.662 35.1794 116.616 35.6563Z" stroke="#FFA503" stroke-width="3.27019" stroke-miterlimit="10" stroke-linecap="round" stroke-linejoin="round"/>
<path d="M128.777 22.5414L116.377 28.7412L128.777 34.9409L141.176 28.7412L128.777 22.5414Z" stroke="#FFA503" stroke-width="3.27019" stroke-miterlimit="10" stroke-linecap="round" stroke-linejoin="round"/>
</svg>
