<svg width="24" height="24" viewBox="0 0 24 24" fill="none" xmlns="http://www.w3.org/2000/svg">
<path d="M16.2 10C16.2 10 16 11 13 15C10.1 18.8 14.3 21.6 14.8 22H14.9C15.5 21.5 23.1 16.7 16.2 10Z" stroke="#FFA503" stroke-width="1.5" stroke-miterlimit="10" stroke-linecap="round" stroke-linejoin="round"/>
<path d="M13.8 7.80001C13.8 5.50001 12.9 3.40001 12 2.20001C11.7 1.90001 11.2 2.00001 11.1 2.40001C10.7 3.90001 9.50001 7.10001 6.60001 10.9C2.90001 15.7 6.30001 20.9 9.80001 21.9C11.7 22.4 9.30001 20.9 9.00001 17.8C8.70001 13.9 13.8 11 13.8 7.80001Z" stroke="#FFA503" stroke-width="1.5" stroke-miterlimit="10" stroke-linecap="round" stroke-linejoin="round"/>
</svg>
