<svg width="108" height="57" viewBox="0 0 108 57" fill="none" xmlns="http://www.w3.org/2000/svg">
<path d="M23.6716 38.6394V36.6936C23.6716 36.4381 23.6225 36.1851 23.527 35.949C23.4316 35.713 23.2917 35.4985 23.1154 35.3177C22.9389 35.137 22.7295 34.9937 22.4992 34.896C22.2687 34.7982 22.0218 34.7478 21.7724 34.7478H14.1749C11.6564 34.7478 9.24099 33.7229 7.46009 31.8983C5.6792 30.0738 4.67869 27.5993 4.67865 25.0191C4.67865 23.7415 4.92428 22.4764 5.40152 21.296C5.87875 20.1156 6.57824 19.0432 7.46006 18.1397C8.34187 17.2363 9.38872 16.5197 10.5409 16.0308C11.693 15.5419 12.9279 15.2903 14.1749 15.2903H21.7718C22.0212 15.2904 22.2683 15.2401 22.4988 15.1424C22.7292 15.0446 22.9388 14.9013 23.1151 14.7206C23.2916 14.5399 23.4315 14.3254 23.527 14.0893C23.6225 13.8532 23.6716 13.6001 23.6716 13.3445V11.3987H14.1753C12.4295 11.3987 10.7007 11.751 9.08773 12.4355C7.47476 13.12 6.00918 14.1233 4.77468 15.388C3.54017 16.6528 2.5609 18.1543 1.8928 19.8068C1.2247 21.4593 0.880841 23.2304 0.880859 25.0191C0.880859 28.6313 2.28152 32.0958 4.77471 34.6501C7.26791 37.2044 10.6494 38.6394 14.1753 38.6394H23.6716Z" fill="url(#paint0_linear_13_577)"/>
<path d="M8.47729 25.0191C8.47729 26.5672 9.07757 28.0519 10.1461 29.1465C11.2145 30.2412 12.6637 30.8561 14.1748 30.8561H23.6717C24.6792 30.8561 25.6452 31.2662 26.3575 31.996C27.0699 32.7257 27.4701 33.7156 27.4701 34.7477V38.6393H31.2686V34.7478C31.2686 32.6837 30.4683 30.7041 29.0436 29.2444C27.6188 27.7848 25.6865 26.9649 23.6717 26.9649H14.1751C13.6713 26.9649 13.1883 26.7598 12.8321 26.395C12.4759 26.0301 12.2758 25.5351 12.2758 25.0191C12.2758 24.503 12.4759 24.0081 12.8321 23.6432C13.1883 23.2783 13.6713 23.0733 14.1751 23.0733H23.6717C25.6865 23.0733 27.6188 22.2533 29.0436 20.7937C30.4683 19.3341 31.2686 17.3545 31.2686 15.2903V11.3987H27.4695V15.2903C27.4695 16.3223 27.0694 17.312 26.3573 18.0417C25.6451 18.7715 24.6791 19.1816 23.6717 19.1817H14.1751C13.4268 19.1817 12.6859 19.3326 11.9946 19.626C11.3033 19.9193 10.6751 20.3493 10.1461 20.8914C9.61696 21.4334 9.19727 22.0769 8.91094 22.7852C8.62462 23.4934 8.47727 24.2525 8.47729 25.0191Z" fill="url(#paint1_linear_13_577)"/>
<path d="M42.2005 14.9898C44.8409 14.1329 47.5276 13.7044 50.2606 13.7044C52.9937 13.7044 55.0782 14.156 56.5142 15.0593C56.8384 16.0784 57.0121 17.0512 57.0353 17.9776C57.0353 20.1548 56.132 21.9846 54.3254 23.4669C52.5189 24.9492 50.2027 26.0146 47.377 26.6631L46.6822 33.0209L43.8334 33.2988L42.2005 14.9898ZM51.5461 18.8115C51.5461 17.3523 50.9555 16.2637 49.7742 15.5457C49.45 15.5457 49.0331 15.6152 48.5235 15.7542L47.5508 24.7176C48.8015 24.0227 49.7742 23.131 50.4691 22.0425C51.1871 20.9539 51.5461 19.8769 51.5461 18.8115ZM59.0156 23.5364C59.0156 21.1044 60.3011 18.8809 62.872 16.8659L67.5274 20.0274C65.4197 21.3708 64.3659 22.7836 64.3659 24.2659C64.3659 25.0534 64.7943 26.0725 65.6513 27.3232C66.5314 28.5739 66.9715 29.5467 66.9715 30.2416C66.9715 32.7198 65.2576 34.6422 61.8297 36.0087L60.579 34.3064C62.0845 33.4957 62.8372 32.6156 62.8372 31.666C62.8372 30.6932 62.2003 29.5004 60.9264 28.0876C60.44 27.5548 60 26.8832 59.6062 26.0725C59.2125 25.2387 59.0156 24.3933 59.0156 23.5364ZM72.6692 33.3336L71.2448 19.2284L77.3246 18.3251L75.4833 33.0904L72.6692 33.3336ZM72.1133 16.1016C71.6038 15.5689 71.349 14.9435 71.349 14.2255C71.349 13.4844 71.6038 12.859 72.1133 12.3495C72.646 11.8399 73.2714 11.5851 73.9894 11.5851C74.7074 11.5851 75.3212 11.8399 75.8307 12.3495C76.3634 12.859 76.6298 13.4844 76.6298 14.2255C76.6298 14.9435 76.3634 15.5689 75.8307 16.1016C75.3212 16.6111 74.7074 16.8659 73.9894 16.8659C73.2714 16.8659 72.646 16.6111 72.1133 16.1016ZM83.5782 33.3336L82.3622 21.8687L79.7218 22.2162L79.5481 19.2978L82.0495 19.1589L81.6326 15.1983L88.72 14.2255L88.1294 18.8462L90.9782 18.7072L90.874 20.618L87.8514 21.0349L86.3923 33.0904L83.5782 33.3336ZM98.2393 17.5607C102.825 19.3905 105.118 21.6835 105.118 24.4397C105.118 25.8757 104.713 26.9063 103.902 27.5317C103.092 28.157 101.795 28.4697 100.011 28.4697C98.2508 28.4697 96.9191 28.3655 96.0158 28.157C95.6684 29.0372 95.4831 29.9636 95.4599 30.9364C96.3169 31.0522 97.5097 31.1101 99.0383 31.1101C100.567 31.1101 102.211 30.809 103.972 30.2068L104.805 32.9514C103.416 33.3915 101.864 33.6115 100.15 33.6115C97.0696 33.6115 94.8114 33.0441 93.3754 31.9092C93.0743 30.5658 92.9237 29.3035 92.9237 28.1223C92.9237 25.7367 93.4449 23.5827 94.4871 21.6603C95.5526 19.7147 96.8033 18.3482 98.2393 17.5607ZM96.5716 26.8368C96.8033 26.86 97.417 26.8716 98.413 26.8716C99.4321 26.8716 100.59 26.7326 101.887 26.4547C101.933 26.1073 101.968 25.7483 101.991 25.3777C101.991 24.2428 101.667 23.1542 101.019 22.1119C99.1194 23.3627 97.6371 24.9376 96.5716 26.8368Z" fill="#FFA503"/>
<defs>
<linearGradient id="paint0_linear_13_577" x1="4.32226" y1="25.0191" x2="33.5629" y2="25.0191" gradientUnits="userSpaceOnUse">
<stop stop-color="#F54A48"/>
<stop offset="1" stop-color="#FA982F"/>
</linearGradient>
<linearGradient id="paint1_linear_13_577" x1="4.30649" y1="25.019" x2="33.5705" y2="25.019" gradientUnits="userSpaceOnUse">
<stop stop-color="#FFA503"/>
<stop offset="1" stop-color="#FA982F"/>
</linearGradient>
</defs>
</svg>
